<svg xmlns="http://www.w3.org/2000/svg" xmlns:xlink="http://www.w3.org/1999/xlink" viewBox="0 0 225.41 261.94"><defs><style>.cls-1{fill:#e5b68d;}.cls-2{fill:none;}.cls-3{fill:url(#linear-gradient);}.cls-4{fill:url(#linear-gradient-2);}.cls-5{fill:url(#linear-gradient-3);}.cls-6{fill:url(#linear-gradient-4);}.cls-7{fill:url(#linear-gradient-5);}.cls-8{fill:url(#linear-gradient-6);}</style><linearGradient id="linear-gradient" x1="126.09" y1="8.08" x2="126.09" y2="234.24" gradientUnits="userSpaceOnUse"><stop offset="0.01" stop-color="#e1b588"/><stop offset="0.12" stop-color="#d7ab82"/><stop offset="0.29" stop-color="#cfa27d"/><stop offset="0.55" stop-color="#cc9f7b"/><stop offset="1" stop-color="#e1b588"/></linearGradient><linearGradient id="linear-gradient-2" x1="151.03" y1="8.08" x2="151.03" y2="234.24" xlink:href="#linear-gradient"/><linearGradient id="linear-gradient-3" x1="180.21" y1="8.08" x2="180.21" y2="234.24" xlink:href="#linear-gradient"/><linearGradient id="linear-gradient-4" x1="99.05" y1="8.08" x2="99.05" y2="234.24" xlink:href="#linear-gradient"/><linearGradient id="linear-gradient-5" x1="74.38" y1="8.08" x2="74.38" y2="234.24" xlink:href="#linear-gradient"/><linearGradient id="linear-gradient-6" x1="45.2" y1="8.08" x2="45.2" y2="234.24" xlink:href="#linear-gradient"/></defs><title>Asset 3</title><g id="Layer_2" data-name="Layer 2"><g id="Layer_2-2" data-name="Layer 2"><path class="cls-1" d="M204.89,204.55h-6.5c-2.17.33-.33-3.17-.33-3.17,12.5-20.17,12.16-33.33,12.16-33.33,1.34-17-19.66-25-24.33-26.84a40.69,40.69,0,0,1-9.83-5.5c-2-1.5-3.34-.75-3.67,1.34-1.33,13,2.17,17.16,9,24.83s7.17,16.5,7.67,21.33-.84,5.67-1.67,5.67-1-3.83-1-3.83c-.83-12.67-9.33-22-11.83-24.84-8.5-9-17.67-11.16-23.34-11.33l-11.92.38a1.31,1.31,0,0,0-1.24,1.08c-.7,3.87,1,7.43,3.33,10.37h0l.06.07c.35.43.71.85,1.08,1.25a34,34,0,0,0,18.6,9.91,13.78,13.78,0,0,1,6.32,2.78c2,1.65,3.34,3.6,2.48,6a1,1,0,0,1-.33.53c-1,.87-3.55-1.1-3.55-1.1a22.44,22.44,0,0,0-12.58-3.84s-22.25-.63-18.25,26.37c.89,6,2.09,5.89,4.25,5.89s2.25-2.77,2.25-2.77a12.5,12.5,0,0,1,13.18-12.48c7,.38,12.16,6.77,11.78,13.8-.9,16.64-19,16.72-19,16.72a22.56,22.56,0,0,1-22.56-22.56l0-1.1v-73.5c0-9.75,6.08-8.75,6.08-8.75h42.25v-.07c3.51-.06,10.3.39,22.09,5.57,1.33,1,4.83,2.67,4.83.84s-1-3.84-3.83-9a19.21,19.21,0,0,1-3.3-10,19.18,19.18,0,0,1,3.3-10c2.83-5.17,3.83-7.17,3.83-9s-3.5-.17-4.83.83c-15.17,6.67-20.59,5.17-24.15,5.38H134.06c-7.75,0-8.17-5.17-8.75-11.17s.56-8.72.56-8.72h0a5.14,5.14,0,0,1,4.19-3c2.47-.36,8.83-1.66,24,5,1.33,1,4.83,2.67,4.83.84s-1-3.84-3.83-9a19.12,19.12,0,0,1-3.28-9.79,19.06,19.06,0,0,1,3.28-9.71c2.83-5.17,3.83-7.17,3.83-9,0,0,0-.07,0-.1s0-.24,0-.36c0-1.84-3.5-.17-4.83.83-15.17,6.67-21.5,5-24,5a3.33,3.33,0,0,1-3.5-3.53h0v-.46h0l.16-8.37c0-2.5-1.35-11,5.32-26.22C133,3.5,134.7,0,132.87,0s-3.83,1-9,3.83a19.18,19.18,0,0,1-10,3.3H112.7v6h1.53A27.2,27.2,0,0,0,123.3,11a51.49,51.49,0,0,0-2.61,19.24q0,.45,0,.75l-.16,8.37v.79a9.27,9.27,0,0,0,9.5,9.26c.21,0,.47,0,.77,0,.78.06,1.85.14,3.19.14a46.27,46.27,0,0,0,14.09-2.49,27,27,0,0,0-2.31,9.22l0,.41,0,.41a27.32,27.32,0,0,0,2.06,8.73A45.3,45.3,0,0,0,134,63.37a28.54,28.54,0,0,0-4.56.37l-.26,0a11.17,11.17,0,0,0-8.78,6.42l-.06.13c-.41,1-1.69,4.67-1,11.64v.19c.56,5.73,1.6,16.4,14.71,16.4h37.7l.54,0,1,0,1.54,0A45,45,0,0,0,189.35,96a27.15,27.15,0,0,0-2.08,9l0,.34,0,.34a27.15,27.15,0,0,0,2.08,9A49.8,49.8,0,0,0,174,111.89h-.62l-4.29.07H131.52c-.22,0-.48,0-.76,0-5.36,0-11.62,3.87-11.62,14.78v73.44l0,1.16a28.59,28.59,0,0,0,28.56,28.56,28.88,28.88,0,0,0,3.52-.31c-.93.23-1.88.43-2.85.61.34,0,.68,0,1-.1a38.48,38.48,0,0,0,17.34-7.2c-.83.52-1.77,1.09-2.84,1.68a22.05,22.05,0,0,0,8.8-17.08,19.54,19.54,0,0,0-4.93-14.06,18,18,0,0,0-12.52-6l-1,0A18.44,18.44,0,0,0,141,192.89a12.67,12.67,0,0,1,2.76-6.45c3.49-4.05,9.32-4.1,9.57-4.1h.13a16.39,16.39,0,0,1,9.1,2.73,11.2,11.2,0,0,0,6.36,2.43,7,7,0,0,0,6.77-5.09c.86-2.73,1.25-7.64-4.44-12.32A19.49,19.49,0,0,0,162.2,166a28.1,28.1,0,0,1-15.29-8.11c-.25-.27-.51-.57-.76-.87l-.56-.73a12.87,12.87,0,0,1-.8-1.24l6.43-.21c4,.15,11.52,1.6,18.91,9.38l.12.14c2.34,2.64,9.45,10.68,10.15,21,.36,7.85,4,9.5,7,9.5a7.35,7.35,0,0,0,5.43-2.44c2.59-2.87,2.5-7,2.21-9.84l-.11-1.13c-.5-5.25-1.43-15-9-23.58-4.71-5.29-7.2-8.08-7.68-13.66a49.77,49.77,0,0,0,5.51,2.57l.2.08c17.61,6.91,20.78,15.07,20.34,20.7l0,.31v.31c0,.06-.06,11.93-11.27,30l-.12.18-.1.2c-1,1.89-2.36,5.55-.41,8.76a6.68,6.68,0,0,0,5.79,3.21l.58,0h6.19c4.53,0,7.87,1.21,10.21,3.72,4.84,5.17,4.29,14.26,4.28,14.35v.43a22.85,22.85,0,0,1-22.83,22.83h-.24s-.38,0-1,0a96.31,96.31,0,0,1-18-1.91,38.44,38.44,0,0,0-7.4-.74,32.57,32.57,0,0,0-11,1.87c2.5-4.8,6.85-8.43,13-8.43h.88l.11-.06c.94,0,5.11.35,12.92,4.54,4.64,2.48,8.08,3.64,10.84,3.64A7.39,7.39,0,0,0,204,246c1.33-3.81-.75-7.65-3.4-9.78a17.55,17.55,0,0,1-3.38-3.88,22.91,22.91,0,0,0,6.09.77c.52,0,1.06,0,1.62,0,6.61-.37,11.59-5.13,11.59-11.08s-5-10.73-11.23-11.06a22.65,22.65,0,0,0-3.87-.3c-4.51,0-12.17,1-23,5.77a75.5,75.5,0,0,0-11.07,6.08l-.23.15a39.06,39.06,0,0,1-17.66,8.14,33.79,33.79,0,0,1-10,.16c-1,0-2-.07-2.94-.16l-.25,0H136c-.46,0-12.14-.4-18.22-10.3l-5.12-8.33v11.47c8,13,23.27,13.16,23.27,13.16,16,1.51,29.13-5.61,34.68-9.24a71.56,71.56,0,0,1,10.19-5.61c16-7,23.8-5,23.8-5,3.27,0,5.92,2.28,5.92,5.08s-2.66,4.91-5.92,5.09c-5,.27-7.9-1.07-9.5-2.33a6.21,6.21,0,0,1-1.91-2.94c-.4-1.17-1.34-.23-1.34-.23-5.67,8.16,1.62,16.53,5,19.33,2.5,2,3.33,7.17-8.17,1s-16.74-5.2-16.74-5.2c-11.79,0-19.88,9.65-21.34,21.34-.66,5.28,2.25,3.69,2.25,3.69l3-2.16c1.17-1.17,8.5-6,20.33-3.67a96.88,96.88,0,0,0,20.32,2,28.83,28.83,0,0,0,28.83-28.83S227.22,204.55,204.89,204.55Z"/><path class="cls-1" d="M112.7,212.08l-5.11,8.33c-6.08,9.9-17.76,10.29-18.26,10.3h-.21l-.25,0c-1.14.11-2.31.16-3.47.17a33.6,33.6,0,0,1-9.45-.2,39,39,0,0,1-17.67-8.11l-.23-.15A77.42,77.42,0,0,0,47,216.37c-10.87-4.77-18.52-5.77-23-5.77a22.61,22.61,0,0,0-3.86.3c-6.25.33-11.23,5.17-11.23,11.06s5,10.71,11.59,11.08c.56,0,1.1,0,1.61,0a22.86,22.86,0,0,0,6.09-.77,18.16,18.16,0,0,1-3.45,3.95c-2.58,2.06-4.66,5.9-3.32,9.71a7.39,7.39,0,0,0,7.3,4.84h0c2.77,0,6.21-1.16,10.85-3.64,8-4.28,12.15-4.54,13-4.54l.69.21.25-.15c6.19,0,10.54,3.63,13,8.43a32.46,32.46,0,0,0-11-1.87A38.62,38.62,0,0,0,48,250a96.23,96.23,0,0,1-18,1.91c-.58,0-.92,0-1,0h-.23A22.85,22.85,0,0,1,6,229.05v-.23l0-.23c0-.06-.55-9.15,4.28-14.32,2.35-2.51,5.69-3.72,10.22-3.72h6.19l.58,0a6.68,6.68,0,0,0,5.79-3.21c2-3.22.58-6.87-.42-8.76l-.1-.2-.11-.18c-11.21-18.09-11.27-30-11.27-30.08v-.31l0-.25c-.44-5.63,2.73-13.79,20.35-20.7l.2-.08a50.64,50.64,0,0,0,5.51-2.57c-.48,5.58-3,8.37-7.68,13.66-7.62,8.55-8.55,18.33-9,23.58l-.11,1.13c-.29,2.84-.39,7,2.21,9.84A7.33,7.33,0,0,0,38,194.88c3,0,6.62-1.65,7-9.5.7-10.3,7.81-18.34,10.15-21l.12-.14c7.38-7.78,14.94-9.23,18.91-9.38l6.43.21a12.87,12.87,0,0,1-.8,1.24l-.55.71c-.24.29-.51.61-.8.91A27.93,27.93,0,0,1,63.21,166a19.52,19.52,0,0,0-9.07,4.05c-5.68,4.68-5.3,9.6-4.43,12.32a7,7,0,0,0,6.77,5.09,11.2,11.2,0,0,0,6.36-2.43,16.39,16.39,0,0,1,9.1-2.73h.17c.2,0,6,0,9.53,4.1a12.75,12.75,0,0,1,2.76,6.45,18.44,18.44,0,0,0-13.21-5.56c-.33,0-.67,0-1,0a18,18,0,0,0-12.53,6,19.59,19.59,0,0,0-4.93,14.06c.4,7.2,3.48,13.11,8.81,17.08-1.08-.6-2-1.17-2.87-1.7A38.38,38.38,0,0,0,76,230.1c.49.07,1,.1,1.47.14-1.13-.19-2.23-.41-3.29-.68a28.51,28.51,0,0,0,3.48.31,28.6,28.6,0,0,0,28.59-28.56l0-1.16V126.71c0-10.91-6.25-14.78-11.61-14.78-.28,0-.54,0-.76,0H54.5L52,111.89h-.62a49.7,49.7,0,0,0-15.35,2.75,27.15,27.15,0,0,0,2.08-9l0-.34,0-.34a27.15,27.15,0,0,0-2.08-9A44.93,44.93,0,0,0,50.6,98.56l1.54,0,1,0,.53,0H91.35c13.11,0,14.15-10.67,14.7-16.4l0-.19c.68-7-.6-10.67-1-11.64l-.06-.13a11.13,11.13,0,0,0-8.78-6.41l-.27,0a28.27,28.27,0,0,0-4.55-.37,45.41,45.41,0,0,0-13.85,2.52,27.05,27.05,0,0,0,2.06-8.73l0-.41,0-.41a27,27,0,0,0-2.31-9.22,46.22,46.22,0,0,0,14.09,2.49c1.34,0,2.41-.08,3.18-.14.31,0,.56,0,.78,0,5.35,0,9.25-3.81,9.49-9.27V39.3l-.17-8.3c0-.2,0-.45,0-.75A51.41,51.41,0,0,0,102.11,11a27.2,27.2,0,0,0,9.07,2.11h1.52v-6h-1.18a19.18,19.18,0,0,1-10-3.3C96.37,1,94.37,0,92.54,0s-.17,3.5.83,4.83C100,20,98.68,28.55,98.68,31.05l.17,8.37h0v.46h0a3.35,3.35,0,0,1-3.5,3.53c-2.5,0-8.83,1.67-24-5-1.33-1-4.83-2.67-4.83-.83,0,.12,0,.24,0,.36s0,.06,0,.1c0,1.83,1,3.83,3.83,9a19.16,19.16,0,0,1,3.28,9.71,19.12,19.12,0,0,1-3.28,9.79c-2.83,5.16-3.83,7.16-3.83,9s3.5.16,4.83-.84c15.17-6.66,21.53-5.36,24-5a5.1,5.1,0,0,1,4.18,3h0s1.15,2.72.57,8.72-1,11.17-8.75,11.17H54c-3.57-.21-9,1.29-24.15-5.38-1.33-1-4.83-2.67-4.83-.83s1,3.83,3.83,9a19.18,19.18,0,0,1,3.3,10,19.21,19.21,0,0,1-3.3,10c-2.83,5.16-3.83,7.16-3.83,9s3.5.16,4.83-.84c11.79-5.18,18.58-5.63,22.08-5.57V118H94.18s6.08-1,6.08,8.75v73.5l0,1.1a22.56,22.56,0,0,1-22.56,22.56s-18.1-.08-19-16.72c-.39-7,4.75-13.42,11.78-13.8a12.5,12.5,0,0,1,13.18,12.48s.08,2.77,2.24,2.77,3.37.08,4.25-5.89c4-27-18.24-26.37-18.24-26.37a22.44,22.44,0,0,0-12.58,3.84s-2.55,2-3.55,1.1a.85.85,0,0,1-.33-.53c-.86-2.43.48-4.38,2.48-6a13.78,13.78,0,0,1,6.32-2.78A33.92,33.92,0,0,0,82.87,162c.38-.4.74-.82,1.09-1.25l.06-.07h0c2.37-2.94,4-6.5,3.33-10.37a1.32,1.32,0,0,0-1.24-1.08l-11.93-.38c-5.66.17-14.83,2.33-23.33,11.33-2.5,2.84-11,12.17-11.83,24.84,0,0-.17,3.83-1,3.83s-2.17-.83-1.67-5.67.83-13.66,7.67-21.33,10.33-11.83,9-24.83c-.34-2.09-1.67-2.84-3.67-1.34a40.9,40.9,0,0,1-9.83,5.5c-4.67,1.84-25.67,9.84-24.34,26.84,0,0-.33,13.16,12.17,33.33,0,0,1.83,3.5-.33,3.17h-6.5C-1.82,204.55,0,229.05,0,229.05a28.83,28.83,0,0,0,28.83,28.83,96.77,96.77,0,0,0,20.31-2c11.84-2.33,19.17,2.5,20.34,3.67l3,2.16s2.9,1.59,2.24-3.69c-1.46-11.69-9.55-21.34-21.33-21.34,0,0-5.25-1-16.75,5.2s-10.66,1-8.16-1c3.37-2.8,10.66-11.17,5-19.33,0,0-.94-.94-1.34.23a6.21,6.21,0,0,1-1.91,2.94c-1.6,1.26-4.51,2.6-9.5,2.33-3.27-.18-5.92-2.28-5.92-5.09s2.65-5.08,5.92-5.08c0,0,7.78-2,23.79,5a71.67,71.67,0,0,1,10.2,5.61c5.54,3.63,18.7,10.75,34.67,9.24,0,0,15.29-.16,23.27-13.16V212.08Z"/><path class="cls-2" d="M130,226.65a24.79,24.79,0,0,1-4.12-2.7,27.16,27.16,0,0,1-3.46-3.49,32.34,32.34,0,0,1-4.88-8.55,56.28,56.28,0,0,1-3.53-18c.09-1.73.07-3.45.11-5.17l.15-11.47c.12-7.65.11-15.3.16-23l-.22-45.89c0-.56,0-1.11,0-1.67l16.19-.07c6-.08,12-.11,17.94-.25,11.37-.21,22.75-.52,34.13-1.09a1.75,1.75,0,1,0,0-.16c-11.38-.56-22.76-.87-34.13-1.08-6-.14-12-.17-17.94-.25l-16.22-.08c-.15-13.75-.26-27.49-.49-41.24l-.08-4.66,6.11-.07c2.41-.08,4.83-.11,7.25-.25,4.42-.2,8.84-.5,13.26-1a1.75,1.75,0,1,0,0-.28c-4.42-.53-8.84-.83-13.26-1-2.42-.14-4.84-.17-7.25-.25l-6.16-.07-.26-15.32c-.18-7.06-.32-14.13-.52-21.2h-.09c-.21,7.07-.34,14.14-.52,21.2l-.26,15.32-6.7.07c-2.42.08-4.84.11-7.26.25-4.83.22-9.67.54-14.5,1.17,4.83.62,9.67,1,14.5,1.17,2.42.14,4.84.17,7.26.25l6.64.07-.08,4.65c-.22,13.75-.33,27.49-.48,41.24l-16.77.07c-6,.09-11.95.11-17.93.25-11.38.21-22.76.53-34.14,1.09a1.75,1.75,0,1,0,0,.16c11.38.57,22.76.88,34.14,1.09,6,.14,12,.17,17.93.25l16.73.08c0,.55,0,1.11,0,1.66L111,154.32c0,7.65,0,15.3.16,23l.15,11.47c0,1.9,0,3.79.14,5.69a59.23,59.23,0,0,1-.83,7.94A48.76,48.76,0,0,1,108,212a32.72,32.72,0,0,1-4.91,8.55,27.32,27.32,0,0,1-3.47,3.5,25.73,25.73,0,0,1-4.13,2.7,32.07,32.07,0,0,1-17.94,3.54c-.49,0-1-.07-1.47-.14a38.38,38.38,0,0,1-17.37-7.25c-.33-.23-.67-.46-1-.7l.6.45A39,39,0,0,0,76,230.71a33.6,33.6,0,0,0,9.45.2A32.17,32.17,0,0,0,96,227.8a27.29,27.29,0,0,0,4.43-2.72,28,28,0,0,0,3.79-3.59,34.11,34.11,0,0,0,5.43-8.84,49.49,49.49,0,0,0,3-9.58,2.25,2.25,0,0,1,0,.22,50.31,50.31,0,0,0,3,9.4,34.68,34.68,0,0,0,5.45,8.85,28.76,28.76,0,0,0,3.81,3.59,27.81,27.81,0,0,0,4.44,2.72,32.4,32.4,0,0,0,10.11,3.05,33.79,33.79,0,0,0,10-.16,39.06,39.06,0,0,0,17.66-8.14l.6-.45-1,.72a38.48,38.48,0,0,1-17.34,7.2c-.34.05-.68.06-1,.1A32.08,32.08,0,0,1,130,226.65Z"/><circle class="cls-2" cx="81.67" cy="56.4" r="1.75"/><path class="cls-3" d="M124.93,225.13a28.76,28.76,0,0,1-3.81-3.59,34.68,34.68,0,0,1-5.45-8.85,50.31,50.31,0,0,1-3-9.4v8.79l5.12,8.33c6.08,9.9,17.76,10.29,18.22,10.3h.25l.25,0c1,.09,2,.14,2.94.16a32.4,32.4,0,0,1-10.11-3.05A27.81,27.81,0,0,1,124.93,225.13Z"/><path class="cls-4" d="M114.45,16.65a1.74,1.74,0,0,1-1.7,1.74c.2,7.07.34,14.14.52,21.2l.26,15.32,6.16.07c2.41.08,4.83.11,7.25.25,4.42.2,8.84.5,13.26,1a1.75,1.75,0,1,1,0,.28c-4.42.52-8.84.82-13.26,1-2.42.14-4.84.17-7.25.25l-6.11.07.08,4.66c.23,13.75.34,27.49.49,41.24l16.22.08c6,.08,12,.11,17.94.25,11.37.21,22.75.52,34.13,1.08a1.75,1.75,0,1,1,0,.16c-11.38.57-22.76.88-34.13,1.09-6,.14-12,.17-17.94.25l-16.19.07c0,.56,0,1.11,0,1.67l.22,45.89c0,7.65,0,15.3-.16,23l-.15,11.47c0,1.72,0,3.44-.11,5.17a56.28,56.28,0,0,0,3.53,18,32.34,32.34,0,0,0,4.88,8.55,27.16,27.16,0,0,0,3.46,3.49,24.79,24.79,0,0,0,4.12,2.7,32.08,32.08,0,0,0,18.36,3.52c1-.18,1.92-.38,2.85-.61a28.88,28.88,0,0,1-3.52.31,28.59,28.59,0,0,1-28.56-28.56l0-1.16V126.71c0-10.91,6.26-14.78,11.62-14.78.28,0,.54,0,.76,0h37.57l4.29-.07H174a49.8,49.8,0,0,1,15.35,2.75,27.15,27.15,0,0,1-2.08-9l0-.34,0-.34a27.15,27.15,0,0,1,2.08-9,45,45,0,0,1-14.54,2.56l-1.54,0-1,0-.54,0h-37.7c-13.11,0-14.15-10.67-14.71-16.4V82c-.68-7,.6-10.67,1-11.64l.06-.13a11.17,11.17,0,0,1,8.78-6.42l.26,0a28.54,28.54,0,0,1,4.56-.37,45.3,45.3,0,0,1,13.84,2.52,27.32,27.32,0,0,1-2.06-8.73l0-.41,0-.41a27,27,0,0,1,2.31-9.22A46.27,46.27,0,0,1,134,49.61c-1.34,0-2.41-.08-3.19-.14-.3,0-.56,0-.77,0a9.27,9.27,0,0,1-9.5-9.26v-.79l.16-8.37q0-.3,0-.75A51.49,51.49,0,0,1,123.3,11a27.2,27.2,0,0,1-9.07,2.11H112.7V14.9A1.75,1.75,0,0,1,114.45,16.65Z"/><path class="cls-5" d="M167.13,222.6l.23-.15a75.5,75.5,0,0,1,11.07-6.08c10.86-4.77,18.52-5.77,23-5.77a22.65,22.65,0,0,1,3.87.3c6.25.33,11.23,5.17,11.23,11.06s-5,10.71-11.59,11.08c-.56,0-1.1,0-1.62,0a22.91,22.91,0,0,1-6.09-.77,17.55,17.55,0,0,0,3.38,3.88c2.65,2.13,4.73,6,3.4,9.78a7.39,7.39,0,0,1-7.31,4.84c-2.76,0-6.2-1.16-10.84-3.64-7.81-4.19-12-4.52-12.92-4.54l-.11.06H172c-6.2,0-10.55,3.63-13,8.43a32.57,32.57,0,0,1,11-1.87,38.44,38.44,0,0,1,7.4.74,96.31,96.31,0,0,0,18,1.91c.58,0,.92,0,1,0h.24a22.85,22.85,0,0,0,22.83-22.83v-.43c0-.09.56-9.18-4.28-14.35-2.34-2.51-5.68-3.72-10.21-3.72H198.7l-.58,0a6.68,6.68,0,0,1-5.79-3.21c-2-3.21-.58-6.87.41-8.76l.1-.2.12-.18c11.21-18.09,11.27-30,11.27-30v-.31l0-.31c.44-5.63-2.73-13.79-20.34-20.7l-.2-.08a49.77,49.77,0,0,1-5.51-2.57c.48,5.58,3,8.37,7.68,13.66,7.62,8.55,8.55,18.33,9,23.58l.11,1.13c.29,2.84.38,7-2.21,9.84a7.35,7.35,0,0,1-5.43,2.44c-3,0-6.63-1.65-7-9.5-.7-10.3-7.81-18.34-10.15-21l-.12-.14c-7.39-7.78-14.95-9.23-18.91-9.38l-6.43.21a12.87,12.87,0,0,0,.8,1.24l.56.73c.25.3.51.6.76.87A28.1,28.1,0,0,0,162.2,166a19.49,19.49,0,0,1,9.06,4.05c5.69,4.68,5.3,9.59,4.44,12.32a7,7,0,0,1-6.77,5.09,11.2,11.2,0,0,1-6.36-2.43,16.39,16.39,0,0,0-9.1-2.73h-.13c-.25,0-6.08,0-9.57,4.1a12.67,12.67,0,0,0-2.76,6.45,18.44,18.44,0,0,1,13.21-5.56l1,0a18,18,0,0,1,12.52,6,19.54,19.54,0,0,1,4.93,14.06,22.05,22.05,0,0,1-8.8,17.08c1.07-.59,2-1.16,2.84-1.68l1-.72Z"/><path class="cls-6" d="M112.65,203.07a49.49,49.49,0,0,1-3,9.58,34.11,34.11,0,0,1-5.43,8.84,28,28,0,0,1-3.79,3.59A27.29,27.29,0,0,1,96,227.8a32.17,32.17,0,0,1-10.61,3.11c1.16,0,2.33-.06,3.47-.17l.25,0h.21c.5,0,12.18-.4,18.26-10.3l5.11-8.33h0v-8.79A2.25,2.25,0,0,0,112.65,203.07Z"/><path class="cls-7" d="M111.18,13.12A27.2,27.2,0,0,1,102.11,11a51.41,51.41,0,0,1,2.6,19.24c0,.3,0,.55,0,.75l.17,8.3v.85c-.24,5.46-4.14,9.27-9.49,9.27-.22,0-.47,0-.78,0-.77.06-1.84.14-3.18.14A46.22,46.22,0,0,1,77.3,47.12a27,27,0,0,1,2.31,9.22l0,.41,0,.41a27.05,27.05,0,0,1-2.06,8.73A45.41,45.41,0,0,1,91.4,63.37a28.27,28.27,0,0,1,4.55.37l.27,0A11.13,11.13,0,0,1,105,70.19l.06.13c.41,1,1.69,4.67,1,11.64l0,.19c-.55,5.73-1.59,16.4-14.7,16.4H53.64l-.53,0-1,0-1.54,0A44.93,44.93,0,0,1,36.06,96a27.15,27.15,0,0,1,2.08,9l0,.34,0,.34a27.15,27.15,0,0,1-2.08,9,49.7,49.7,0,0,1,15.35-2.75H52l2.47.07H93.89c.22,0,.48,0,.76,0,5.36,0,11.61,3.87,11.61,14.78v73.44l0,1.16A28.6,28.6,0,0,1,77.7,229.87a28.51,28.51,0,0,1-3.48-.31c1.06.27,2.16.49,3.29.68a32.07,32.07,0,0,0,17.94-3.54,25.73,25.73,0,0,0,4.13-2.7,27.32,27.32,0,0,0,3.47-3.5A32.72,32.72,0,0,0,108,212a48.76,48.76,0,0,0,2.65-9.58,59.23,59.23,0,0,0,.83-7.94c-.14-1.9-.1-3.79-.14-5.69l-.15-11.47c-.13-7.65-.12-15.3-.16-23l.22-45.89c0-.55,0-1.11,0-1.66l-16.73-.08c-6-.08-11.95-.11-17.93-.25-11.38-.21-22.76-.52-34.14-1.09a1.75,1.75,0,1,1,0-.16c11.38-.56,22.76-.88,34.14-1.09,6-.14,12-.16,17.93-.25l16.77-.07c.15-13.75.26-27.49.48-41.24l.08-4.65-6.64-.07c-2.42-.08-4.84-.11-7.26-.25-4.83-.22-9.67-.55-14.5-1.17a1.75,1.75,0,1,1-1.75-1.75,1.76,1.76,0,0,1,1.75,1.75c4.83-.63,9.67-.95,14.5-1.17,2.42-.14,4.84-.17,7.26-.25l6.7-.07.26-15.32c.18-7.06.31-14.13.52-21.2a1.75,1.75,0,0,1,0-3.49V13.13h-1.52Z"/><path class="cls-8" d="M58.67,222.85c.83.53,1.79,1.1,2.87,1.7-5.33-4-8.41-9.88-8.81-17.08a19.59,19.59,0,0,1,4.93-14.06,18,18,0,0,1,12.53-6c.33,0,.67,0,1,0a18.44,18.44,0,0,1,13.21,5.56,12.75,12.75,0,0,0-2.76-6.45c-3.5-4.05-9.33-4.1-9.53-4.1h-.17a16.39,16.39,0,0,0-9.1,2.73,11.2,11.2,0,0,1-6.36,2.43,7,7,0,0,1-6.77-5.09c-.87-2.72-1.25-7.64,4.43-12.32A19.52,19.52,0,0,1,63.21,166,27.93,27.93,0,0,0,78.47,158c.29-.3.56-.62.8-.91l.55-.71a12.87,12.87,0,0,0,.8-1.24l-6.43-.21c-4,.15-11.53,1.6-18.91,9.38l-.12.14c-2.34,2.64-9.45,10.68-10.15,21-.37,7.85-4,9.5-7,9.5a7.33,7.33,0,0,1-5.43-2.44c-2.6-2.87-2.5-7-2.21-9.84l.11-1.13c.5-5.25,1.43-15,9.05-23.58,4.71-5.29,7.2-8.08,7.68-13.66a50.64,50.64,0,0,1-5.51,2.57l-.2.08c-17.62,6.91-20.79,15.07-20.35,20.7l0,.25v.31c0,.12.06,12,11.27,30.08l.11.18.1.2c1,1.89,2.37,5.54.42,8.76a6.68,6.68,0,0,1-5.79,3.21l-.58,0H20.52c-4.53,0-7.87,1.21-10.22,3.72C5.47,219.44,6,228.53,6,228.59l0,.23v.23a22.85,22.85,0,0,0,22.83,22.83h.23s.39,0,1,0A96.23,96.23,0,0,0,48,250a38.62,38.62,0,0,1,7.41-.74,32.46,32.46,0,0,1,11,1.87c-2.5-4.8-6.85-8.43-13-8.43l-.25.15-.69-.21c-.82,0-5,.26-13,4.54-4.64,2.48-8.08,3.64-10.85,3.64h0a7.39,7.39,0,0,1-7.3-4.84c-1.34-3.81.74-7.65,3.32-9.71a18.16,18.16,0,0,0,3.45-3.95,22.86,22.86,0,0,1-6.09.77c-.51,0-1.05,0-1.61,0-6.61-.37-11.59-5.13-11.59-11.08s5-10.73,11.23-11.06a22.61,22.61,0,0,1,3.86-.3c4.52,0,12.17,1,23,5.77a77.42,77.42,0,0,1,11.07,6.08l.23.15-.6-.45C58,222.39,58.34,222.62,58.67,222.85Z"/></g></g></svg>