<?xml version="1.0" encoding="utf-8"?>
<!-- Generator: Adobe Illustrator 24.1.1, SVG Export Plug-In . SVG Version: 6.00 Build 0)  -->
<svg version="1.1" id="Layer_1" xmlns="http://www.w3.org/2000/svg" xmlns:xlink="http://www.w3.org/1999/xlink" x="0px" y="0px"
	 viewBox="0 0 512 512" style="enable-background:new 0 0 512 512;" xml:space="preserve">
<style type="text/css">
	.st0{fill:#333333;}
</style>
<g id="XMLID_2_">
	<path id="XMLID_4_" class="st0" d="M502.9,3.7c6.5,4.6,9.3,10.2,7.4,18.6L436.9,460c-0.9,5.6-3.7,10.2-9.3,13
		c-2.8,1.9-5.6,1.9-9.3,1.9c-1.9,0-4.6-0.9-6.5-1.9l-128.2-52l-68.8,84.6c-3.7,4.6-8.4,6.5-13.9,6.5c-2.8,0-4.6,0-6.5-0.9
		c-3.7-0.9-6.5-3.7-8.4-6.5c-1.9-2.8-3.7-6.5-3.7-10.2V394L428.6,92L124.7,355.9L12.3,309.4c-7.4-2.8-11.2-7.4-11.2-15.8
		c0-7.4,2.8-13,9.3-16.7L485.2,2.8c2.8-1.9,5.6-2.8,9.3-2.8C496.4,0.9,500.1,1.9,502.9,3.7z"/>
</g>
</svg>
